<svg width="1401" height="661.5" xmlns="http://www.w3.org/2000/svg" xmlns:xlink="http://www.w3.org/1999/xlink" fill="#ffffff"><defs><style>
  text {
    fill: #212529;
    font-family: Helvetica Neue, Helvetica, Arial, sans-serif;
    font-size: 16px;
  }

  marker, text {
    fill-opacity: 1;
  }

  * {
    overflow: visible;
  }
</style></defs><svg x="635" y="25" width="200" height="330" class="Recipe" fill="#ffffff"><g><rect width="100%" height="40" stroke="none" fill="white" class="sc-kAyceB haGKns"></rect><rect y="40" width="100%" height="290" stroke="none" fill="white" class="sc-kAyceB haGKns"></rect><svg height="40"><text x="50%" y="50%" dominant-baseline="middle" text-anchor="middle" font-weight="bold" pointer-events="none">Recipe</text></svg><svg x="0" y="40.5" width="199" height="40" class="isLiked" fill="#ffffff"><g><rect width="100%" height="100%" stroke="none" fill="white" class="sc-kAyceB haGKns"></rect><text x="10" y="50%" dominant-baseline="middle" text-anchor="start" font-weight="normal" pointer-events="none">isLiked</text></g></svg><svg x="0" y="80.5" width="199" height="30" class="isLocal" fill="#ffffff"><g><rect width="100%" height="100%" stroke="none" fill="white" class="sc-kAyceB haGKns"></rect><text x="10" y="50%" dominant-baseline="middle" text-anchor="start" font-weight="normal" pointer-events="none">isLocal</text></g></svg><svg x="0" y="110.5" width="199" height="40" class="getIdMeal()" fill="#ffffff"><g><rect width="100%" height="100%" stroke="none" fill="white" class="sc-kAyceB haGKns"></rect><text x="10" y="50%" dominant-baseline="middle" text-anchor="start" font-weight="normal" pointer-events="none">getIdMeal()</text></g></svg><svg x="0" y="150.5" width="199" height="30" class="getStrMeal()" fill="#ffffff"><g><rect width="100%" height="100%" stroke="none" fill="white" class="sc-kAyceB haGKns"></rect><text x="10" y="50%" dominant-baseline="middle" text-anchor="start" font-weight="normal" pointer-events="none">getStrMeal()</text></g></svg><svg x="0" y="180.5" width="199" height="30" class="getStrCategory()" fill="#ffffff"><g><rect width="100%" height="100%" stroke="none" fill="white" class="sc-kAyceB haGKns"></rect><text x="10" y="50%" dominant-baseline="middle" text-anchor="start" font-weight="normal" pointer-events="none">getStrCategory()</text></g></svg><svg x="0" y="210.5" width="199" height="30" class="getStrArea()" fill="#ffffff"><g><rect width="100%" height="100%" stroke="none" fill="white" class="sc-kAyceB haGKns"></rect><text x="10" y="50%" dominant-baseline="middle" text-anchor="start" font-weight="normal" pointer-events="none">getStrArea()</text></g></svg><svg x="0" y="240.5" width="199" height="30" class="getStrInstructions()" fill="#ffffff"><g><rect width="100%" height="100%" stroke="none" fill="white" class="sc-kAyceB haGKns"></rect><text x="10" y="50%" dominant-baseline="middle" text-anchor="start" font-weight="normal" pointer-events="none">getStrInstructions()</text></g></svg><svg x="0" y="270.5" width="199" height="30" class="getStrMealThumb()" fill="#ffffff"><g><rect width="100%" height="100%" stroke="none" fill="white" class="sc-kAyceB haGKns"></rect><text x="10" y="50%" dominant-baseline="middle" text-anchor="start" font-weight="normal" pointer-events="none">getStrMealThumb()</text></g></svg><svg x="0" y="300.5" width="199" height="30" class="getStrTags()" fill="#ffffff"><g><rect width="100%" height="100%" stroke="none" fill="white" class="sc-kAyceB haGKns"></rect><text x="10" y="50%" dominant-baseline="middle" text-anchor="start" font-weight="normal" pointer-events="none">getStrTags()</text></g></svg><rect width="100%" height="100%" stroke="black" fill="none" class="sc-kAyceB izLLBO"></rect><path d="M 0 40 H 200" stroke="black" fill="white" class="sc-iGgWBj fYmGgq"></path><path d="M 0 110 H 200" stroke="black" fill="white" class="sc-iGgWBj fYmGgq"></path></g></svg><svg x="1005" y="235" width="200" height="120" class="Instructions" fill="#ffffff"><g><rect width="100%" height="40" stroke="none" fill="white" class="sc-kAyceB haGKns"></rect><rect y="40" width="100%" height="80" stroke="none" fill="white" class="sc-kAyceB haGKns"></rect><svg height="40"><text x="50%" y="50%" dominant-baseline="middle" text-anchor="middle" font-weight="bold" pointer-events="none">Instructions</text></svg><svg x="0" y="40.5" width="199" height="40" class="stepsArray" fill="#ffffff"><g><rect width="100%" height="100%" stroke="none" fill="white" class="sc-kAyceB haGKns"></rect><text x="10" y="50%" dominant-baseline="middle" text-anchor="start" font-weight="normal" pointer-events="none">stepsArray</text></g></svg><svg x="0" y="80.5" width="199" height="40" class="getInstructions()" fill="#ffffff"><g><rect width="100%" height="100%" stroke="none" fill="white" class="sc-kAyceB haGKns"></rect><text x="10" y="50%" dominant-baseline="middle" text-anchor="start" font-weight="normal" pointer-events="none">getInstructions()</text></g></svg><rect width="100%" height="100%" stroke="black" fill="none" class="sc-kAyceB izLLBO"></rect><path d="M 0 40 H 200" stroke="black" fill="white" class="sc-iGgWBj fYmGgq"></path><path d="M 0 80 H 200" stroke="black" fill="white" class="sc-iGgWBj fYmGgq"></path></g></svg><svg x="865" y="445" width="200" height="200" class="Ingredient" fill="#ffffff"><g><rect width="100%" height="40" stroke="none" fill="white" class="sc-kAyceB haGKns"></rect><rect y="40" width="100%" height="160" stroke="none" fill="white" class="sc-kAyceB haGKns"></rect><svg height="40"><text x="50%" y="50%" dominant-baseline="middle" text-anchor="middle" font-weight="bold" pointer-events="none">Ingredient</text></svg><svg x="0" y="40.5" width="199" height="40" class="name" fill="#ffffff"><g><rect width="100%" height="100%" stroke="none" fill="white" class="sc-kAyceB haGKns"></rect><text x="10" y="50%" dominant-baseline="middle" text-anchor="start" font-weight="normal" pointer-events="none">name</text></g></svg><svg x="0" y="80.5" width="199" height="30" class="alergy" fill="#ffffff"><g><rect width="100%" height="100%" stroke="none" fill="white" class="sc-kAyceB haGKns"></rect><text x="10" y="50%" dominant-baseline="middle" text-anchor="start" font-weight="normal" pointer-events="none">alergy</text></g></svg><svg x="0" y="110.5" width="199" height="30" class="isGlutenFree" fill="#ffffff"><g><rect width="100%" height="100%" stroke="none" fill="white" class="sc-kAyceB haGKns"></rect><text x="10" y="50%" dominant-baseline="middle" text-anchor="start" font-weight="normal" pointer-events="none">isGlutenFree</text></g></svg><svg x="0" y="140.5" width="199" height="30" class="isVegan" fill="#ffffff"><g><rect width="100%" height="100%" stroke="none" fill="white" class="sc-kAyceB haGKns"></rect><text x="10" y="50%" dominant-baseline="middle" text-anchor="start" font-weight="normal" pointer-events="none">isVegan</text></g></svg><svg x="0" y="170.5" width="199" height="30" class="isVegetarian" fill="#ffffff"><g><rect width="100%" height="100%" stroke="none" fill="white" class="sc-kAyceB haGKns"></rect><text x="10" y="50%" dominant-baseline="middle" text-anchor="start" font-weight="normal" pointer-events="none">isVegetarian</text></g></svg><rect width="100%" height="100%" stroke="black" fill="none" class="sc-kAyceB izLLBO"></rect><path d="M 0 40 H 200" stroke="black" fill="white" class="sc-iGgWBj fYmGgq"></path></g></svg><svg x="1145" y="445" width="240" height="150" class="Measurenment" fill="#ffffff"><g><rect width="100%" height="40" stroke="none" fill="white" class="sc-kAyceB haGKns"></rect><rect y="40" width="100%" height="110" stroke="none" fill="white" class="sc-kAyceB haGKns"></rect><svg height="40"><text x="50%" y="50%" dominant-baseline="middle" text-anchor="middle" font-weight="bold" pointer-events="none">Measurenment</text></svg><svg x="0" y="40.5" width="239" height="40" class="amount" fill="#ffffff"><g><rect width="100%" height="100%" stroke="none" fill="white" class="sc-kAyceB haGKns"></rect><text x="10" y="50%" dominant-baseline="middle" text-anchor="start" font-weight="normal" pointer-events="none">amount</text></g></svg><svg x="0" y="80.5" width="239" height="30" class="unitOfMeasurenment" fill="#ffffff"><g><rect width="100%" height="100%" stroke="none" fill="white" class="sc-kAyceB haGKns"></rect><text x="10" y="50%" dominant-baseline="middle" text-anchor="start" font-weight="normal" pointer-events="none">unitOfMeasurenment</text></g></svg><svg x="0" y="110.5" width="239" height="40" class="convertUnitOfMeasurenment()" fill="#ffffff"><g><rect width="100%" height="100%" stroke="none" fill="white" class="sc-kAyceB haGKns"></rect><text x="10" y="50%" dominant-baseline="middle" text-anchor="start" font-weight="normal" pointer-events="none">convertUnitOfMeasurenment()</text></g></svg><rect width="100%" height="100%" stroke="black" fill="none" class="sc-kAyceB izLLBO"></rect><path d="M 0 40 H 240" stroke="black" fill="white" class="sc-iGgWBj fYmGgq"></path><path d="M 0 110 H 240" stroke="black" fill="white" class="sc-iGgWBj fYmGgq"></path></g></svg><svg x="335" y="25" width="200" height="270" class="RecipeCollection" fill="#ffffff"><g><rect width="100%" height="40" stroke="none" fill="white" class="sc-kAyceB haGKns"></rect><rect y="40" width="100%" height="230" stroke="none" fill="white" class="sc-kAyceB haGKns"></rect><svg height="40"><text x="50%" y="50%" dominant-baseline="middle" text-anchor="middle" font-weight="bold" pointer-events="none">RecipeCollection</text></svg><svg x="0" y="40.5" width="199" height="40" class="name" fill="#ffffff"><g><rect width="100%" height="100%" stroke="none" fill="white" class="sc-kAyceB haGKns"></rect><text x="10" y="50%" dominant-baseline="middle" text-anchor="start" font-weight="normal" pointer-events="none">name</text></g></svg><svg x="0" y="80.5" width="199" height="30" class="numberOfRecipes" fill="#ffffff"><g><rect width="100%" height="100%" stroke="none" fill="white" class="sc-kAyceB haGKns"></rect><text x="10" y="50%" dominant-baseline="middle" text-anchor="start" font-weight="normal" pointer-events="none">numberOfRecipes</text></g></svg><svg x="0" y="110.5" width="199" height="30" class="tagsArray" fill="#ffffff"><g><rect width="100%" height="100%" stroke="none" fill="white" class="sc-kAyceB haGKns"></rect><text x="10" y="50%" dominant-baseline="middle" text-anchor="start" font-weight="normal" pointer-events="none">tagsArray</text></g></svg><svg x="0" y="140.5" width="199" height="40" class="deleteCollection()" fill="#ffffff"><g><rect width="100%" height="100%" stroke="none" fill="white" class="sc-kAyceB haGKns"></rect><text x="10" y="50%" dominant-baseline="middle" text-anchor="start" font-weight="normal" pointer-events="none">deleteCollection()</text></g></svg><svg x="0" y="180.5" width="199" height="30" class="addRecipe()" fill="#ffffff"><g><rect width="100%" height="100%" stroke="none" fill="white" class="sc-kAyceB haGKns"></rect><text x="10" y="50%" dominant-baseline="middle" text-anchor="start" font-weight="normal" pointer-events="none">addRecipe()</text></g></svg><svg x="0" y="210.5" width="199" height="30" class="deleteRecipe()" fill="#ffffff"><g><rect width="100%" height="100%" stroke="none" fill="white" class="sc-kAyceB haGKns"></rect><text x="10" y="50%" dominant-baseline="middle" text-anchor="start" font-weight="normal" pointer-events="none">deleteRecipe()</text></g></svg><svg x="0" y="240.5" width="199" height="30" class="editCollection()" fill="#ffffff"><g><rect width="100%" height="100%" stroke="none" fill="white" class="sc-kAyceB haGKns"></rect><text x="10" y="50%" dominant-baseline="middle" text-anchor="start" font-weight="normal" pointer-events="none">editCollection()</text></g></svg><rect width="100%" height="100%" stroke="black" fill="none" class="sc-kAyceB izLLBO"></rect><path d="M 0 40 H 200" stroke="black" fill="white" class="sc-iGgWBj fYmGgq"></path><path d="M 0 140 H 200" stroke="black" fill="white" class="sc-iGgWBj fYmGgq"></path></g></svg><svg x="15" y="15" width="200" height="300" class="User" fill="#ffffff"><g><rect width="100%" height="40" stroke="none" fill="white" class="sc-kAyceB haGKns"></rect><rect y="40" width="100%" height="260" stroke="none" fill="white" class="sc-kAyceB haGKns"></rect><svg height="40"><text x="50%" y="50%" dominant-baseline="middle" text-anchor="middle" font-weight="bold" pointer-events="none">User</text></svg><svg x="0" y="40.5" width="199" height="40" class="name" fill="#ffffff"><g><rect width="100%" height="100%" stroke="none" fill="white" class="sc-kAyceB haGKns"></rect><text x="10" y="50%" dominant-baseline="middle" text-anchor="start" font-weight="normal" pointer-events="none">name</text></g></svg><svg x="0" y="80.5" width="199" height="30" class="lastName" fill="#ffffff"><g><rect width="100%" height="100%" stroke="none" fill="white" class="sc-kAyceB haGKns"></rect><text x="10" y="50%" dominant-baseline="middle" text-anchor="start" font-weight="normal" pointer-events="none">lastName</text></g></svg><svg x="0" y="110.5" width="199" height="30" class="age" fill="#ffffff"><g><rect width="100%" height="100%" stroke="none" fill="white" class="sc-kAyceB haGKns"></rect><text x="10" y="50%" dominant-baseline="middle" text-anchor="start" font-weight="normal" pointer-events="none">age</text></g></svg><svg x="0" y="140.5" width="199" height="30" class="email" fill="#ffffff"><g><rect width="100%" height="100%" stroke="none" fill="white" class="sc-kAyceB haGKns"></rect><text x="10" y="50%" dominant-baseline="middle" text-anchor="start" font-weight="normal" pointer-events="none">email</text></g></svg><svg x="0" y="170.5" width="199" height="30" class="nickname" fill="#ffffff"><g><rect width="100%" height="100%" stroke="none" fill="white" class="sc-kAyceB haGKns"></rect><text x="10" y="50%" dominant-baseline="middle" text-anchor="start" font-weight="normal" pointer-events="none">nickname</text></g></svg><svg x="0" y="200.5" width="199" height="30" class="userID" fill="#ffffff"><g><rect width="100%" height="100%" stroke="none" fill="white" class="sc-kAyceB haGKns"></rect><text x="10" y="50%" dominant-baseline="middle" text-anchor="start" font-weight="normal" pointer-events="none">userID</text></g></svg><svg x="0" y="230.5" width="199" height="40" class="subscribeToCollection()" fill="#ffffff"><g><rect width="100%" height="100%" stroke="none" fill="white" class="sc-kAyceB haGKns"></rect><text x="10" y="50%" dominant-baseline="middle" text-anchor="start" font-weight="normal" pointer-events="none">subscribeToCollection()</text></g></svg><svg x="0" y="270.5" width="199" height="30" class="createRecipe()" fill="#ffffff"><g><rect width="100%" height="100%" stroke="none" fill="white" class="sc-kAyceB haGKns"></rect><text x="10" y="50%" dominant-baseline="middle" text-anchor="start" font-weight="normal" pointer-events="none">createRecipe()</text></g></svg><rect width="100%" height="100%" stroke="black" fill="none" class="sc-kAyceB izLLBO"></rect><path d="M 0 40 H 200" stroke="black" fill="white" class="sc-iGgWBj fYmGgq"></path><path d="M 0 230 H 200" stroke="black" fill="white" class="sc-iGgWBj fYmGgq"></path></g></svg><svg x="1030" y="355" width="16.633333206176758" height="101" class="" fill="#ffffff"><g><polyline points="5 90,5 0" stroke-width="1" marker-end="url(#marker-338f9e1c-e4c7-4490-a2fb-6ea5742e6f6e)" stroke="black" fill="none" class="sc-dcJsrY byrzoU"></polyline><text x="5" y="82" dx="5" text-anchor="start" pointer-events="none">*</text><text x="5" y="8" dx="5" dy="10" text-anchor="start" pointer-events="none"></text><text x="5" y="82" dx="-5" text-anchor="end" pointer-events="none"></text><text x="5" y="8" dx="-5" dy="10" text-anchor="end" pointer-events="none"></text></g></svg><svg x="1170" y="355" width="16.633333206176758" height="101" class="" fill="#ffffff"><g><polyline points="5 90,5 0" stroke-width="1" marker-end="url(#marker-0d4dd21c-705a-4a65-9961-a5808e21c84e)" stroke="black" fill="none" class="sc-dcJsrY byrzoU"></polyline><text x="5" y="82" dx="5" text-anchor="start" pointer-events="none">*</text><text x="5" y="8" dx="5" dy="10" text-anchor="start" pointer-events="none"></text><text x="5" y="82" dx="-5" text-anchor="end" pointer-events="none"></text><text x="5" y="8" dx="-5" dy="10" text-anchor="end" pointer-events="none"></text></g></svg><svg x="835" y="180" width="275" height="55" class="" fill="#ffffff"><g><marker id="marker-e3339f02-335e-4606-a80a-24996a00263e" style="transform: scale(1);" viewBox="0 0 30 30" markerWidth="30" markerHeight="30" refX="30" refY="15" orient="auto" markerUnits="strokeWidth"><path d="M0,15 L15,22 L30,15 L15,8 z" stroke="white" fill="black" class="sc-gsFSXq efCHfI"></path></marker><polyline points="0 10,270 10,270 55" stroke-width="1" marker-end="url(#marker-e3339f02-335e-4606-a80a-24996a00263e)" stroke="black" fill="none" class="sc-dcJsrY byrzoU"></polyline><text x="8" y="10" dy="21" text-anchor="start" pointer-events="none"></text><text x="270" y="24" dx="5" text-anchor="start" pointer-events="none"></text><text x="8" y="10" dy="-10" text-anchor="start" pointer-events="none"></text><text x="270" y="24" dx="-5" text-anchor="end" pointer-events="none"></text></g></svg><svg x="535" y="150" width="100" height="50" class="" fill="#ffffff"><g><polyline points="0 10,100 10" stroke-width="1" marker-end="url(#marker-28b14688-9bd8-4968-bb34-db6683da3df0)" stroke="black" fill="none" class="sc-dcJsrY byrzoU"></polyline><text x="8" y="10" dy="21" text-anchor="start" pointer-events="none"></text><text x="92" y="10" dy="21" text-anchor="end" pointer-events="none">*</text><text x="8" y="10" dy="-10" text-anchor="start" pointer-events="none"></text><text x="92" y="10" dy="-10" text-anchor="end" pointer-events="none"></text></g></svg><svg x="215" y="150" width="120" height="50" class="" fill="#ffffff"><g><polyline points="0 10,120 10" stroke-width="1" marker-end="url(#marker-7ac1ea1a-65f2-4c64-9972-9cb8ba74ebba)" stroke="black" fill="none" class="sc-dcJsrY byrzoU"></polyline><text x="8" y="10" dy="21" text-anchor="start" pointer-events="none"></text><text x="112" y="10" dy="21" text-anchor="end" pointer-events="none">*</text><text x="8" y="10" dy="-10" text-anchor="start" pointer-events="none"></text><text x="112" y="10" dy="-10" text-anchor="end" pointer-events="none"></text></g></svg></svg>