<svg width="1131" height="651" xmlns="http://www.w3.org/2000/svg" xmlns:xlink="http://www.w3.org/1999/xlink" fill="#ffffff"><defs><style>
  text {
    fill: #212529;
    font-family: Helvetica Neue, Helvetica, Arial, sans-serif;
    font-size: 16px;
  }

  marker, text {
    fill-opacity: 1;
  }

  * {
    overflow: visible;
  }
</style></defs><svg x="15" y="25" width="420" height="190" class="ExternalReceipe Subsystem" fill="#ffffff"><g data-cy="uml-component"><rect width="100%" height="100%" stroke="black" fill="white" class="sc-kAyceB ldFMTf"></rect><text x="50%" y="25px" dominant-baseline="auto" text-anchor="middle" font-weight="bold" pointer-events="none">ExternalReceipe Subsystem</text><g transform="translate(389, 7)"><path style="transform: scale(1);" d="M 4.8 0 L 24 0 L 24 24 L 4.8 24 L 4.8 19.2 L 0 19.2 L 0 14.4 L 4.8 14.4 L 4.8 9.6 L 0 9.6 L 0 4.8 L 4.8 4.8 Z" stroke-width="1.2" stroke-miterlimit="10" stroke="black" fill="white" class="sc-iGgWBj fYmGgq"></path><path style="transform: scale(1);" d="M 4.8 4.8 L 9.6 4.8 L 9.6 9.6 L 4.8 9.6 M 4.8 14.4 L 9.6 14.4 L 9.6 19.2 L 4.8 19.2" stroke-width="1.2" stroke-miterlimit="10" stroke="black" fill="none" class="sc-iGgWBj fKkjFz"></path></g></g></svg><svg x="125" y="75" width="200" height="100" class="FetchedRecipes" fill="#ffffff"><g data-cy="uml-component"><rect width="100%" height="100%" stroke="black" fill="white" class="sc-kAyceB ldFMTf"></rect><text x="50%" y="25px" dominant-baseline="auto" text-anchor="middle" font-weight="bold" pointer-events="none">FetchedRecipes</text><g transform="translate(169, 7)"><path style="transform: scale(1);" d="M 4.8 0 L 24 0 L 24 24 L 4.8 24 L 4.8 19.2 L 0 19.2 L 0 14.4 L 4.8 14.4 L 4.8 9.6 L 0 9.6 L 0 4.8 L 4.8 4.8 Z" stroke-width="1.2" stroke-miterlimit="10" stroke="black" fill="white" class="sc-iGgWBj fYmGgq"></path><path style="transform: scale(1);" d="M 4.8 4.8 L 9.6 4.8 L 9.6 9.6 L 4.8 9.6 M 4.8 14.4 L 9.6 14.4 L 9.6 19.2 L 4.8 19.2" stroke-width="1.2" stroke-miterlimit="10" stroke="black" fill="none" class="sc-iGgWBj fKkjFz"></path></g></g></svg><svg x="735" y="15" width="380" height="200" class="LocalRecipes Subsystem" fill="#ffffff"><g data-cy="uml-component"><rect width="100%" height="100%" stroke="black" fill="white" class="sc-kAyceB ldFMTf"></rect><text x="50%" y="25px" dominant-baseline="auto" text-anchor="middle" font-weight="bold" pointer-events="none">LocalRecipes Subsystem</text><g transform="translate(349, 7)"><path style="transform: scale(1);" d="M 4.8 0 L 24 0 L 24 24 L 4.8 24 L 4.8 19.2 L 0 19.2 L 0 14.4 L 4.8 14.4 L 4.8 9.6 L 0 9.6 L 0 4.8 L 4.8 4.8 Z" stroke-width="1.2" stroke-miterlimit="10" stroke="black" fill="white" class="sc-iGgWBj fYmGgq"></path><path style="transform: scale(1);" d="M 4.8 4.8 L 9.6 4.8 L 9.6 9.6 L 4.8 9.6 M 4.8 14.4 L 9.6 14.4 L 9.6 19.2 L 4.8 19.2" stroke-width="1.2" stroke-miterlimit="10" stroke="black" fill="none" class="sc-iGgWBj fKkjFz"></path></g></g></svg><svg x="825" y="75" width="200" height="100" class="LocalRecipes" fill="#ffffff"><g data-cy="uml-component"><rect width="100%" height="100%" stroke="black" fill="white" class="sc-kAyceB ldFMTf"></rect><text x="50%" y="25px" dominant-baseline="auto" text-anchor="middle" font-weight="bold" pointer-events="none">LocalRecipes</text><g transform="translate(169, 7)"><path style="transform: scale(1);" d="M 4.8 0 L 24 0 L 24 24 L 4.8 24 L 4.8 19.2 L 0 19.2 L 0 14.4 L 4.8 14.4 L 4.8 9.6 L 0 9.6 L 0 4.8 L 4.8 4.8 Z" stroke-width="1.2" stroke-miterlimit="10" stroke="black" fill="white" class="sc-iGgWBj fYmGgq"></path><path style="transform: scale(1);" d="M 4.8 4.8 L 9.6 4.8 L 9.6 9.6 L 4.8 9.6 M 4.8 14.4 L 9.6 14.4 L 9.6 19.2 L 4.8 19.2" stroke-width="1.2" stroke-miterlimit="10" stroke="black" fill="none" class="sc-iGgWBj fKkjFz"></path></g></g></svg><svg x="215" y="275" width="20" height="20" class="" fill="#ffffff"><g><circle cx="50%" cy="50%" r="10" stroke-width="2" stroke="black" fill="white" class="sc-jXbUNg jnLokQ"></circle><text x="25px" dominant-baseline="auto" text-anchor="start" font-weight="bold" pointer-events="none"></text></g></svg><svg x="745" y="315" width="360" height="190" class="FavoriteReceipe Subsystem" fill="#ffffff"><g data-cy="uml-component"><rect width="100%" height="100%" stroke="black" fill="white" class="sc-kAyceB ldFMTf"></rect><text x="50%" y="25px" dominant-baseline="auto" text-anchor="middle" font-weight="bold" pointer-events="none">FavoriteReceipe Subsystem</text><g transform="translate(329, 7)"><path style="transform: scale(1);" d="M 4.8 0 L 24 0 L 24 24 L 4.8 24 L 4.8 19.2 L 0 19.2 L 0 14.4 L 4.8 14.4 L 4.8 9.6 L 0 9.6 L 0 4.8 L 4.8 4.8 Z" stroke-width="1.2" stroke-miterlimit="10" stroke="black" fill="white" class="sc-iGgWBj fYmGgq"></path><path style="transform: scale(1);" d="M 4.8 4.8 L 9.6 4.8 L 9.6 9.6 L 4.8 9.6 M 4.8 14.4 L 9.6 14.4 L 9.6 19.2 L 4.8 19.2" stroke-width="1.2" stroke-miterlimit="10" stroke="black" fill="none" class="sc-iGgWBj fKkjFz"></path></g></g></svg><svg x="495" y="275" width="20" height="20" class="filtered Liked Recipes" fill="#ffffff"><g><circle cx="50%" cy="50%" r="10" stroke-width="2" stroke="black" fill="white" class="sc-jXbUNg jnLokQ"></circle><text x="25px" dominant-baseline="auto" text-anchor="start" font-weight="bold" pointer-events="none">filtered Liked Recipes</text></g></svg><svg x="75" y="485" width="300" height="150" class="Recipe API" fill="#ffffff"><g data-cy="uml-component"><rect width="100%" height="100%" stroke="black" fill="white" class="sc-kAyceB ldFMTf"></rect><text x="50%" y="25px" dominant-baseline="auto" text-anchor="middle" font-weight="bold" pointer-events="none">Recipe API</text><g transform="translate(269, 7)"><path style="transform: scale(1);" d="M 4.8 0 L 24 0 L 24 24 L 4.8 24 L 4.8 19.2 L 0 19.2 L 0 14.4 L 4.8 14.4 L 4.8 9.6 L 0 9.6 L 0 4.8 L 4.8 4.8 Z" stroke-width="1.2" stroke-miterlimit="10" stroke="black" fill="white" class="sc-iGgWBj fYmGgq"></path><path style="transform: scale(1);" d="M 4.8 4.8 L 9.6 4.8 L 9.6 9.6 L 4.8 9.6 M 4.8 14.4 L 9.6 14.4 L 9.6 19.2 L 4.8 19.2" stroke-width="1.2" stroke-miterlimit="10" stroke="black" fill="none" class="sc-iGgWBj fKkjFz"></path></g></g></svg><svg x="225" y="215" width="1" height="60" class="" fill="#ffffff"><g><polyline points="0 60,0 20,0 40,0 0" stroke="black" fill="none" class="sc-dcJsrY byrzoU"></polyline></g></svg><svg x="225" y="295" width="1" height="190" class="" fill="#ffffff"><g><polyline points="0 0,0 190" stroke="black" fill="none" class="sc-dcJsrY byrzoU"></polyline></g></svg><svg x="212" y="215" width="27" height="74" class="" fill="#ffffff"><g><marker id="marker-745f6df3-74c6-4923-ae5f-06d04fcec2c5" viewBox="0 0 27 27" markerWidth="27" markerHeight="27" refX="0" refY="0" orient="auto" markerUnits="strokeWidth"><path d="M 13 -13.5 a 1 1 0 0 0 0 27" stroke-width="2" stroke="black" fill="none" class="sc-iGgWBj fKkjFz"></path></marker><polyline points="13 0,13 40,13 20,13 57" stroke-width="1" marker-end="url(#marker-745f6df3-74c6-4923-ae5f-06d04fcec2c5)" stroke="black" fill="none" class="sc-dcJsrY byrzoU"></polyline></g></svg><svg x="435" y="120" width="70" height="155" class="" fill="#ffffff"><g><polyline points="0 0,70 0,70 155" stroke="black" fill="none" class="sc-dcJsrY byrzoU"></polyline></g></svg><svg x="502" y="272" width="243" height="138" class="" fill="#ffffff"><g><marker id="marker-8652f933-118d-4a3a-aa26-3b068a675f15" viewBox="0 0 27 27" markerWidth="27" markerHeight="27" refX="0" refY="0" orient="auto" markerUnits="strokeWidth"><path d="M 8 -12.5 C -3.5 -7.5 -3.3 7.9 8 12.5" stroke-width="2" stroke="black" fill="none" class="sc-iGgWBj fKkjFz"></path></marker><polyline points="243 138,128 138,128 13,16 13" stroke-width="1" marker-end="url(#marker-8652f933-118d-4a3a-aa26-3b068a675f15)" stroke="black" fill="none" class="sc-dcJsrY byrzoU"></polyline></g></svg></svg>