<svg width="541" height="421.5" xmlns="http://www.w3.org/2000/svg" xmlns:xlink="http://www.w3.org/1999/xlink" fill="#ffffff"><defs><style>
  text {
    fill: #212529;
    font-family: Helvetica Neue, Helvetica, Arial, sans-serif;
    font-size: 16px;
  }

  marker, text {
    fill-opacity: 1;
  }

  * {
    overflow: visible;
  }
</style></defs><svg x="325" y="15" width="200" height="210" class="MainModel" fill="#ffffff"><g><rect width="100%" height="40" stroke="none" fill="white" class="sc-kAyceB haGKns"></rect><rect y="40" width="100%" height="170" stroke="none" fill="white" class="sc-kAyceB haGKns"></rect><svg height="40"><text x="50%" y="50%" dominant-baseline="middle" text-anchor="middle" font-weight="bold" pointer-events="none">MainModel</text></svg><svg x="0" y="40.5" width="199" height="40" class="loadMore" fill="#ffffff"><g><rect width="100%" height="100%" stroke="none" fill="white" class="sc-kAyceB haGKns"></rect><text x="10" y="50%" dominant-baseline="middle" text-anchor="start" font-weight="normal" pointer-events="none">loadMore</text></g></svg><svg x="0" y="80.5" width="199" height="40" class="fetchData()" fill="#ffffff"><g><rect width="100%" height="100%" stroke="none" fill="white" class="sc-kAyceB haGKns"></rect><text x="10" y="50%" dominant-baseline="middle" text-anchor="start" font-weight="normal" pointer-events="none">fetchData()</text></g></svg><svg x="0" y="120.5" width="199" height="30" class="populateRecipes()" fill="#ffffff"><g><rect width="100%" height="100%" stroke="none" fill="white" class="sc-kAyceB haGKns"></rect><text x="10" y="50%" dominant-baseline="middle" text-anchor="start" font-weight="normal" pointer-events="none">populateRecipes()</text></g></svg><svg x="0" y="150.5" width="199" height="30" class="isLocalrecipesEmpty()" fill="#ffffff"><g><rect width="100%" height="100%" stroke="none" fill="white" class="sc-kAyceB haGKns"></rect><text x="10" y="50%" dominant-baseline="middle" text-anchor="start" font-weight="normal" pointer-events="none">isLocalrecipesEmpty()</text></g></svg><svg x="0" y="180.5" width="199" height="30" class="populateRecipes()" fill="#ffffff"><g><rect width="100%" height="100%" stroke="none" fill="white" class="sc-kAyceB haGKns"></rect><text x="10" y="50%" dominant-baseline="middle" text-anchor="start" font-weight="normal" pointer-events="none">populateRecipes()</text></g></svg><rect width="100%" height="100%" stroke="black" fill="none" class="sc-kAyceB izLLBO"></rect><path d="M 0 40 H 200" stroke="black" fill="white" class="sc-iGgWBj fYmGgq"></path><path d="M 0 80 H 200" stroke="black" fill="white" class="sc-iGgWBj fYmGgq"></path></g></svg><svg x="15" y="15" width="200" height="390" class="Recipe" fill="#ffffff"><g><rect width="100%" height="40" stroke="none" fill="white" class="sc-kAyceB haGKns"></rect><rect y="40" width="100%" height="350" stroke="none" fill="white" class="sc-kAyceB haGKns"></rect><svg height="40"><text x="50%" y="50%" dominant-baseline="middle" text-anchor="middle" font-weight="bold" pointer-events="none">Recipe</text></svg><svg x="0" y="40.5" width="199" height="40" class="isLiked" fill="#ffffff"><g><rect width="100%" height="100%" stroke="none" fill="white" class="sc-kAyceB haGKns"></rect><text x="10" y="50%" dominant-baseline="middle" text-anchor="start" font-weight="normal" pointer-events="none">isLiked</text></g></svg><svg x="0" y="80.5" width="199" height="30" class="isLocal" fill="#ffffff"><g><rect width="100%" height="100%" stroke="none" fill="white" class="sc-kAyceB haGKns"></rect><text x="10" y="50%" dominant-baseline="middle" text-anchor="start" font-weight="normal" pointer-events="none">isLocal</text></g></svg><svg x="0" y="110.5" width="199" height="30" class="ingredients[]" fill="#ffffff"><g><rect width="100%" height="100%" stroke="none" fill="white" class="sc-kAyceB haGKns"></rect><text x="10" y="50%" dominant-baseline="middle" text-anchor="start" font-weight="normal" pointer-events="none">ingredients[]</text></g></svg><svg x="0" y="140.5" width="199" height="30" class="measurements[]" fill="#ffffff"><g><rect width="100%" height="100%" stroke="none" fill="white" class="sc-kAyceB haGKns"></rect><text x="10" y="50%" dominant-baseline="middle" text-anchor="start" font-weight="normal" pointer-events="none">measurements[]</text></g></svg><svg x="0" y="170.5" width="199" height="40" class="getIdMeal()" fill="#ffffff"><g><rect width="100%" height="100%" stroke="none" fill="white" class="sc-kAyceB haGKns"></rect><text x="10" y="50%" dominant-baseline="middle" text-anchor="start" font-weight="normal" pointer-events="none">getIdMeal()</text></g></svg><svg x="0" y="210.5" width="199" height="30" class="getStrMeal()" fill="#ffffff"><g><rect width="100%" height="100%" stroke="none" fill="white" class="sc-kAyceB haGKns"></rect><text x="10" y="50%" dominant-baseline="middle" text-anchor="start" font-weight="normal" pointer-events="none">getStrMeal()</text></g></svg><svg x="0" y="240.5" width="199" height="30" class="getStrCategory()" fill="#ffffff"><g><rect width="100%" height="100%" stroke="none" fill="white" class="sc-kAyceB haGKns"></rect><text x="10" y="50%" dominant-baseline="middle" text-anchor="start" font-weight="normal" pointer-events="none">getStrCategory()</text></g></svg><svg x="0" y="270.5" width="199" height="30" class="getStrArea()" fill="#ffffff"><g><rect width="100%" height="100%" stroke="none" fill="white" class="sc-kAyceB haGKns"></rect><text x="10" y="50%" dominant-baseline="middle" text-anchor="start" font-weight="normal" pointer-events="none">getStrArea()</text></g></svg><svg x="0" y="300.5" width="199" height="30" class="getStrInstructions()" fill="#ffffff"><g><rect width="100%" height="100%" stroke="none" fill="white" class="sc-kAyceB haGKns"></rect><text x="10" y="50%" dominant-baseline="middle" text-anchor="start" font-weight="normal" pointer-events="none">getStrInstructions()</text></g></svg><svg x="0" y="330.5" width="199" height="30" class="getStrMealThumb()" fill="#ffffff"><g><rect width="100%" height="100%" stroke="none" fill="white" class="sc-kAyceB haGKns"></rect><text x="10" y="50%" dominant-baseline="middle" text-anchor="start" font-weight="normal" pointer-events="none">getStrMealThumb()</text></g></svg><svg x="0" y="360.5" width="199" height="30" class="getStrTags()" fill="#ffffff"><g><rect width="100%" height="100%" stroke="none" fill="white" class="sc-kAyceB haGKns"></rect><text x="10" y="50%" dominant-baseline="middle" text-anchor="start" font-weight="normal" pointer-events="none">getStrTags()</text></g></svg><rect width="100%" height="100%" stroke="black" fill="none" class="sc-kAyceB izLLBO"></rect><path d="M 0 40 H 200" stroke="black" fill="white" class="sc-iGgWBj fYmGgq"></path><path d="M 0 170 H 200" stroke="black" fill="white" class="sc-iGgWBj fYmGgq"></path></g></svg><svg x="215" y="110" width="110" height="50" class="" fill="#ffffff"><g><polyline points="0 10,110 10" stroke-width="1" marker-end="url(#marker-66cc6cb3-35f5-4952-858a-4fee983b3485)" stroke="black" fill="none" class="sc-dcJsrY byrzoU"></polyline><text x="8" y="10" dy="21" text-anchor="start" pointer-events="none">*</text><text x="102" y="10" dy="21" text-anchor="end" pointer-events="none"></text><text x="8" y="10" dy="-10" text-anchor="start" pointer-events="none"></text><text x="102" y="10" dy="-10" text-anchor="end" pointer-events="none"></text></g></svg></svg>